<svg width="20" height="21" viewBox="0 0 20 21" fill="none" xmlns="http://www.w3.org/2000/svg">
<g id="Iconly/Broken/Search">
<g id="Search">
<path id="Vector" d="M19.7555 18.6425L16.3182 15.2753L16.2376 15.1525C16.0878 15.0031 15.883 14.9189 15.6692 14.9189C15.4554 14.9189 15.2505 15.0031 15.1007 15.1525C12.1795 17.8378 7.67815 17.9837 4.58201 15.4936C1.48586 13.0035 0.755668 8.65006 2.87568 5.32044C4.9957 1.99081 9.30807 0.718233 12.9528 2.34666C16.5976 3.9751 18.4438 7.99923 17.267 11.7503C17.1823 12.0213 17.2515 12.3159 17.4487 12.5233C17.6459 12.7307 17.9411 12.8193 18.223 12.7557C18.505 12.6921 18.7309 12.486 18.8156 12.215C20.2224 7.76362 18.0977 2.97329 13.8161 0.942877C9.53449 -1.08754 4.38084 0.251309 1.68905 4.09332C-1.00273 7.93532 -0.424821 13.1275 3.04893 16.311C6.52268 19.4945 11.8498 19.7139 15.5841 16.8274L18.6277 19.8087C18.942 20.1153 19.4502 20.1153 19.7645 19.8087C20.0785 19.4978 20.0785 18.9973 19.7645 18.6863L19.7555 18.6425Z" fill="#B5CDD0"/>
</g>
</g>
</svg>
